Coordinates
version=1
nRows=24
nColumns=22
inDegrees=yes

Units are S.I. units (second, meters, Newtons, ...)
If the header above contains a line with 'inDegrees', this indicates whether rotational values are in degrees (yes) or radians (no).

endheader
time	pelvis_tilt	pelvis_list	pelvis_rotation	pelvis_tx	pelvis_ty	pelvis_tz	hip_flexion_r	hip_adduction_r	hip_rotation_r	knee_angle_r	ankle_angle_r	subtalar_angle_r	hip_flexion_l	hip_adduction_l	hip_rotation_l	knee_angle_l	ankle_angle_l	subtalar_angle_l	lumbar_extension	lumbar_bending	lumbar_rotation
      3.60000000	      0.84691245	      1.24985528	    -31.27184326	     -0.33984494	      0.88401158	     -0.11880179	    -12.73592752	     -3.41661538	      0.23236432	    -19.40074973	     20.98169791	     -4.12206942	     24.32628137	     -3.50868704	    -10.63583258	    -27.24624416	      7.31938705	     -2.32380549	     -8.20800173	     -3.04207489	      7.55282783
      3.61000000	      0.86538033	      1.42716398	    -31.24300827	     -0.33273562	      0.88452804	     -0.11895343	    -12.60748076	     -3.80100993	      0.33121420	    -20.14171447	     20.28987512	     -3.94516582	     24.05101073	     -3.05518420	    -10.64833974	    -27.34937737	      7.56707919	     -2.55710293	     -8.09367962	     -3.14828125	      7.55847327
      3.62000000	      0.88399401	      1.57296977	    -31.23680392	     -0.32567597	      0.88510025	     -0.11913329	    -12.43044248	     -4.16259298	      0.44702275	    -20.96979734	     19.50994759	     -3.66547746	     23.71488649	     -2.62600660	    -10.68243875	    -27.38238983	      7.86500608	     -2.93697069	     -8.00476721	     -3.22298558	      7.61876572
      3.63000000	      0.88645695	      1.72821918	    -31.25308252	     -0.31865103	      0.88567880	     -0.11930267	    -12.17564002	     -4.52458555	      0.60477127	    -21.87442093	     18.66615383	     -3.45512262	     23.35360222	     -2.19975753	    -10.76526961	    -27.34094363	      8.20042687	     -3.27344054	     -7.88846315	     -3.29559157	      7.66275673
      3.64000000	      0.88505614	      1.86567111	    -31.26814664	     -0.31164913	      0.88629597	     -0.11948224	    -11.88632105	     -4.86350040	      0.77341546	    -22.82807965	     17.72398519	     -3.17941992	     22.96199734	     -1.77885092	    -10.83081952	    -27.25462012	      8.55405719	     -3.71790609	     -7.77608734	     -3.34485470	      7.68039534
      3.65000000	      0.88368120	      2.01380469	    -31.32224657	     -0.30473529	      0.88690852	     -0.11958898	    -11.50758151	     -5.21340224	      0.98216804	    -23.90489840	     16.77643438	     -3.02341755	     22.55299221	     -1.36359010	    -10.94433763	    -27.12871003	      8.89607010	     -4.02753688	     -7.65232431	     -3.41784667	      7.74785645
      3.66000000	      0.88596197	      2.14338273	    -31.36122101	     -0.29785838	      0.88754721	     -0.11967831	    -11.09932508	     -5.53529897	      1.19672615	    -25.04556171	     15.74528722	     -2.81585776	     22.13481589	     -0.95431642	    -11.01661410	    -27.00172269	      9.23117083	     -4.40752794	     -7.53938915	     -3.47958792	      7.78859370
      3.67000000	      0.88711603	      2.25233436	    -31.39381511	     -0.29103062	      0.88820005	     -0.11972645	    -10.64159260	     -5.82613334	      1.41283401	    -26.27901868	     14.67769934	     -2.60374973	     21.70364805	     -0.56388692	    -11.06691321	    -26.85949721	      9.54515859	     -4.76681630	     -7.43172082	     -3.52507331	      7.81543847
      3.68000000	      0.88835850	      2.32130175	    -31.39868772	     -0.28425005	      0.88887332	     -0.11975515	    -10.14820548	     -6.06380664	      1.60850218	    -27.60795042	     13.56996139	     -2.30690473	     21.25977081	     -0.20160539	    -11.04930223	    -26.71971568	      9.85358788	     -5.16986646	     -7.34682136	     -3.53837806	      7.83412408
      3.69000000	      0.90838945	      2.39241240	    -31.42317438	     -0.27756180	      0.88953750	     -0.11968451	     -9.58044705	     -6.29992011	      1.83493490	    -29.07904099	     12.51039537	     -2.21521632	     20.80484454	      0.14121979	    -11.10544867	    -26.58930963	     10.10215730	     -5.32854806	     -7.27316484	     -3.58048546	      7.86433215
      3.70000000	      0.92319607	      2.42966897	    -31.43574367	     -0.27096143	      0.89019653	     -0.11958721	     -8.93674416	     -6.48561207	      2.05150353	    -30.68664683	     11.46496589	     -2.04852952	     20.34286551	      0.44442815	    -11.13238386	    -26.45967165	     10.34165368	     -5.53182214	     -7.21530066	     -3.59332650	      7.91470712
      3.71000000	      0.96055489	      2.45350648	    -31.43525356	     -0.26443860	      0.89086251	     -0.11946021	     -8.23726467	     -6.65056569	      2.26767177	    -32.41885124	     10.45042991	     -1.95960075	     19.85343920	      0.73330002	    -11.18505922	    -26.32403657	     10.56138361	     -5.65137265	     -7.18833754	     -3.61289215	      7.92158408
      3.72000000	      1.01154741	      2.46322184	    -31.43436138	     -0.25803387	      0.89152208	     -0.11931385	     -7.45708804	     -6.79750838	      2.46467350	    -34.28713899	      9.49496270	     -1.94178222	     19.33919630	      1.00162703	    -11.26143595	    -26.16894487	     10.75793537	     -5.71116426	     -7.18889028	     -3.63369680	      7.93440478
      3.73000000	      1.06862553	      2.47196662	    -31.44185590	     -0.25177232	      0.89215030	     -0.11916500	     -6.57800274	     -6.93958958	      2.63917815	    -36.27837251	      8.61952048	     -1.98651942	     18.81309086	      1.25702503	    -11.37342816	    -25.99038745	     10.92938983	     -5.72909617	     -7.20432292	     -3.66167373	      7.95428019
      3.74000000	      1.14129458	      2.48839497	    -31.45876209	     -0.24566376	      0.89275116	     -0.11902357	     -5.61453196	     -7.09644824	      2.77220910	    -38.35780644	      7.85307029	     -2.10826949	     18.26741511	      1.51473022	    -11.52911449	    -25.77874442	     11.07089556	     -5.70693083	     -7.24160326	     -3.70995301	      7.96231283
      3.75000000	      1.22191509	      2.51361204	    -31.48471982	     -0.23971844	      0.89331124	     -0.11890624	     -4.57142449	     -7.27177841	      2.84875541	    -40.48166025	      7.22743961	     -2.29507266	     17.71272211	      1.77714172	    -11.71241568	    -25.53664480	     11.18325958	     -5.66411685	     -7.29383499	     -3.77275045	      7.96527249
      3.76000000	      1.31691442	      2.55040507	    -31.51284784	     -0.23392541	      0.89383842	     -0.11882808	     -3.47614868	     -7.47615623	      2.85798104	    -42.59300261	      6.77683988	     -2.54676891	     17.14573444	      2.05645051	    -11.91335580	    -25.26381513	     11.26669402	     -5.61474445	     -7.36652821	     -3.85327435	      7.95114832
      3.77000000	      1.43091385	      2.59196493	    -31.53765129	     -0.22825543	      0.89434807	     -0.11877459	     -2.36444371	     -7.71080011	      2.78774078	    -44.62868243	      6.52691616	     -2.86377683	     16.55657631	      2.35402668	    -12.11516709	    -24.96057561	     11.32506990	     -5.57190549	     -7.46311126	     -3.94974453	      7.90944227
      3.78000000	      1.56671468	      2.63458043	    -31.54936273	     -0.22269590	      0.89485917	     -0.11875783	     -1.26493417	     -7.97218347	      2.64382602	    -46.53535084	      6.50352273	     -3.26746666	     15.94511890	      2.67209195	    -12.30619007	    -24.63280857	     11.35298752	     -5.54612090	     -7.58930901	     -4.05546100	      7.83486717
      3.79000000	      1.71820408	      2.64062767	    -31.54155410	     -0.21722545	      0.89541866	     -0.11872200	     -0.22331265	     -8.21489645	      2.43067251	    -48.25213772	      6.67056779	     -4.00940886	     15.30122547	      2.96658572	    -12.48335783	    -24.30073016	     11.37422197	     -5.55914470	     -7.75433772	     -4.13527887	      7.70270204
      3.80000000	      1.90743950	      2.64566084	    -31.49779332	     -0.21178428	      0.89603876	     -0.11876445	      0.74461415	     -8.49923817	      2.12784104	    -49.75764569	      7.03583009	     -4.45984157	     14.60736391	      3.31092769	    -12.57598126	    -23.92251940	     11.36217452	     -5.57472736	     -7.96186974	     -4.22319940	      7.55244866
      3.81000000	      2.11288201	      2.57862811	    -31.43200388	     -0.20639151	      0.89676328	     -0.11873558	      1.59834127	     -8.72708155	      1.76027814	    -51.00893595	      7.50458612	     -5.34313272	     13.86481817	      3.59595003	    -12.63598928	    -23.56217232	     11.42122548	     -5.64586253	     -8.21808215	     -4.25396041	      7.36237586
      3.82000000	      2.32180000	      2.48137958	    -31.33322991	     -0.20103009	      0.89755760	     -0.11871198	      2.37050473	     -8.92784501	      1.34513232	    -52.01208621	      8.06260275	     -6.05845605	     13.09973692	      3.86830124	    -12.62395943	    -23.19082896	     11.44711393	     -5.71680554	     -8.49123424	     -4.24916464	      7.13080713
      3.83000000	      2.53210593	      2.36978887	    -31.19795620	     -0.19568690	      0.89840443	     -0.11869030	      3.07689543	     -9.12625679	      0.85482123	    -52.78153455	      8.59608189	     -6.58832551	     12.32629853	      4.13917269	    -12.53393312	    -22.81789318	     11.42281325	     -5.77902221	     -8.76528111	     -4.22636561	      6.85313650
